#Comment line ignore any data following # character 
#Hierarchical Translation and Rotation (.htr) file 
[Header]	
#Header keywords are followed by a single value 
FileType HTR		#Single word string
DataType HTRS		#Translation followed by rotation and scale data
FileVersion 1		#integer
NumSegments 84		#integer
NumFrames 2		#integer
DataFrameRate 30		#integer, data frame rate in this file
EulerRotationOrder ZYX
CalibrationUnits mm
RotationUnits Degrees
GlobalAxisofGravity Y
BoneLengthAxis Y
ScaleFactor 1.00
[SegmentNames&Hierarchy]
#CHILD	PARENT
MASTER GLOBAL
root MASTER
chest root
L_mid_tent01 root
R_mid_tent01 root
spine01 root
Bip01_Neck chest
L_humerus chest
R_humerus chest
weapon_bone chest
Bip01_Head Bip01_Neck
eye_left_bone Bip01_Head
eye_right_bone Bip01_Head
L_forearm L_humerus
L_front_hand L_forearm
L_weapon_bone L_forearm
L_front_hand01_01 L_front_hand
L_front_hand02_01 L_front_hand
L_front_hand03_01 L_front_hand
L_front_hand01_02 L_front_hand01_01
L_front_hand02_02 L_front_hand02_01
L_front_hand03_02 L_front_hand03_01
R_forearm R_humerus
R_front_hand R_forearm
R_weapon_bone R_forearm
R_front_hand01_01 R_front_hand
R_front_hand02_01 R_front_hand
R_front_hand03_01 R_front_hand
R_front_hand01_02 R_front_hand01_01
R_front_hand02_02 R_front_hand02_01
R_front_hand03_02 R_front_hand03_01
null_rope01_connect L_mid_tent01
Rope1_Seg01 null_rope01_connect
Rope1_Seg02 Rope1_Seg01
Rope1_Seg03 Rope1_Seg02
Rope1_Seg04 Rope1_Seg03
Rope1_Seg05 Rope1_Seg04
Rope1_Seg06 Rope1_Seg05
Rope1_Seg07 Rope1_Seg06
Rope1_Seg09 Rope1_Seg07
L_mid_hand01 Rope1_Seg09
L_mid_hand02 Rope1_Seg09
L_mid_hand03 Rope1_Seg09
null_rope02_connect R_mid_tent01
Rope2_Seg01 null_rope02_connect
Rope2_Seg02 Rope2_Seg01
Rope2_Seg03 Rope2_Seg02
Rope2_Seg04 Rope2_Seg03
Rope2_Seg05 Rope2_Seg04
Rope2_Seg06 Rope2_Seg05
Rope2_Seg07 Rope2_Seg06
Rope2_Seg09 Rope2_Seg07
R_mid_hand01 Rope2_Seg09
R_mid_hand02 Rope2_Seg09
R_mid_hand03 Rope2_Seg09
spine02 spine01
spine03 spine02
pelvis spine03
null_rope03_connect pelvis
null_rope04_connect pelvis
Rope3_Seg01 null_rope03_connect
Rope3_Seg02 Rope3_Seg01
Rope3_Seg03 Rope3_Seg02
Rope3_Seg04 Rope3_Seg03
Rope3_Seg05 Rope3_Seg04
Rope3_Seg06 Rope3_Seg05
Rope3_Seg07 Rope3_Seg06
Rope3_Seg08 Rope3_Seg07
Rope3_Seg09 Rope3_Seg08
R_rear_hand01 Rope3_Seg09
R_rear_hand02 Rope3_Seg09
R_rear_hand03 Rope3_Seg09
Rope4_Seg01 null_rope04_connect
Rope4_Seg02 Rope4_Seg01
Rope4_Seg03 Rope4_Seg02
Rope4_Seg04 Rope4_Seg03
Rope4_Seg05 Rope4_Seg04
Rope4_Seg06 Rope4_Seg05
Rope4_Seg07 Rope4_Seg06
Rope4_Seg08 Rope4_Seg07
Rope4_Seg09 Rope4_Seg08
L_rear_hand01 Rope4_Seg09
L_rear_hand02 Rope4_Seg09
L_rear_hand03 Rope4_Seg09
[BasePosition]
#SegmentName Tx, Ty, Tz, Rx, Ry, Rz, BoneLength
MASTER 0.000000 0.000000 0.000000 -90.000000 0.000000 0.000000 10.000000 
root 0.000000 0.000000 0.000000 0.000000 0.000000 0.000000 10.000000 
chest 0.000000 0.000000 0.000000 0.000000 0.000000 0.000000 10.000000 
L_mid_tent01 0.000000 0.000000 0.000000 0.000000 0.000000 0.000000 10.000000 
R_mid_tent01 0.000000 0.000000 0.000000 0.000000 0.000000 0.000000 10.000000 
spine01 0.000000 0.000000 0.000000 0.000000 0.000000 0.000000 10.000000 
Bip01_Neck 0.000000 0.000000 0.000000 0.000000 0.000000 0.000000 10.000000 
L_humerus 0.000000 0.000000 0.000000 0.000000 0.000000 0.000000 10.000000 
R_humerus 0.000000 0.000000 0.000000 0.000000 0.000000 0.000000 10.000000 
weapon_bone 0.000000 0.000000 0.000000 0.000000 0.000000 0.000000 10.000000 
Bip01_Head 0.000000 0.000000 0.000000 0.000000 0.000000 0.000000 10.000000 
eye_left_bone 0.000000 0.000000 0.000000 0.000000 0.000000 0.000000 10.000000 
eye_right_bone 0.000000 0.000000 0.000000 0.000000 0.000000 0.000000 10.000000 
L_forearm 0.000000 0.000000 0.000000 0.000000 0.000000 0.000000 10.000000 
L_front_hand 0.000000 0.000000 0.000000 0.000000 0.000000 0.000000 10.000000 
L_weapon_bone 0.000000 0.000000 0.000000 0.000000 0.000000 0.000000 10.000000 
L_front_hand01_01 0.000000 0.000000 0.000000 0.000000 0.000000 0.000000 10.000000 
L_front_hand02_01 0.000000 0.000000 0.000000 0.000000 0.000000 0.000000 10.000000 
L_front_hand03_01 0.000000 0.000000 0.000000 0.000000 0.000000 0.000000 10.000000 
L_front_hand01_02 0.000000 0.000000 0.000000 0.000000 0.000000 0.000000 10.000000 
L_front_hand02_02 0.000000 0.000000 0.000000 0.000000 0.000000 0.000000 10.000000 
L_front_hand03_02 0.000000 0.000000 0.000000 0.000000 0.000000 0.000000 10.000000 
R_forearm 0.000000 0.000000 0.000000 0.000000 0.000000 0.000000 10.000000 
R_front_hand 0.000000 0.000000 0.000000 0.000000 0.000000 0.000000 10.000000 
R_weapon_bone 0.000000 0.000000 0.000000 0.000000 0.000000 0.000000 10.000000 
R_front_hand01_01 0.000000 0.000000 0.000000 0.000000 0.000000 0.000000 10.000000 
R_front_hand02_01 0.000000 0.000000 0.000000 0.000000 0.000000 0.000000 10.000000 
R_front_hand03_01 0.000000 0.000000 0.000000 0.000000 0.000000 0.000000 10.000000 
R_front_hand01_02 0.000000 0.000000 0.000000 0.000000 0.000000 0.000000 10.000000 
R_front_hand02_02 0.000000 0.000000 0.000000 0.000000 0.000000 0.000000 10.000000 
R_front_hand03_02 0.000000 0.000000 0.000000 0.000000 0.000000 0.000000 10.000000 
null_rope01_connect 0.000000 0.000000 0.000000 0.000000 0.000000 0.000000 10.000000 
Rope1_Seg01 0.000000 0.000000 0.000000 0.000000 0.000000 0.000000 10.000000 
Rope1_Seg02 0.000000 0.000000 0.000000 0.000000 0.000000 0.000000 10.000000 
Rope1_Seg03 0.000000 0.000000 0.000000 0.000000 0.000000 0.000000 10.000000 
Rope1_Seg04 0.000000 0.000000 0.000000 0.000000 0.000000 0.000000 10.000000 
Rope1_Seg05 0.000000 0.000000 0.000000 0.000000 0.000000 0.000000 10.000000 
Rope1_Seg06 0.000000 0.000000 0.000000 0.000000 0.000000 0.000000 10.000000 
Rope1_Seg07 0.000000 0.000000 0.000000 0.000000 0.000000 0.000000 10.000000 
Rope1_Seg09 0.000000 0.000000 0.000000 0.000000 0.000000 0.000000 10.000000 
L_mid_hand01 0.000000 0.000000 0.000000 0.000000 0.000000 0.000000 10.000000 
L_mid_hand02 0.000000 0.000000 0.000000 0.000000 0.000000 0.000000 10.000000 
L_mid_hand03 0.000000 0.000000 0.000000 0.000000 0.000000 0.000000 10.000000 
null_rope02_connect 0.000000 0.000000 0.000000 0.000000 0.000000 0.000000 10.000000 
Rope2_Seg01 0.000000 0.000000 0.000000 0.000000 0.000000 0.000000 10.000000 
Rope2_Seg02 0.000000 0.000000 0.000000 0.000000 0.000000 0.000000 10.000000 
Rope2_Seg03 0.000000 0.000000 0.000000 0.000000 0.000000 0.000000 10.000000 
Rope2_Seg04 0.000000 0.000000 0.000000 0.000000 0.000000 0.000000 10.000000 
Rope2_Seg05 0.000000 0.000000 0.000000 0.000000 0.000000 0.000000 10.000000 
Rope2_Seg06 0.000000 0.000000 0.000000 0.000000 0.000000 0.000000 10.000000 
Rope2_Seg07 0.000000 0.000000 0.000000 0.000000 0.000000 0.000000 10.000000 
Rope2_Seg09 0.000000 0.000000 0.000000 0.000000 0.000000 0.000000 10.000000 
R_mid_hand01 0.000000 0.000000 0.000000 0.000000 0.000000 0.000000 10.000000 
R_mid_hand02 0.000000 0.000000 0.000000 0.000000 0.000000 0.000000 10.000000 
R_mid_hand03 0.000000 0.000000 0.000000 0.000000 0.000000 0.000000 10.000000 
spine02 0.000000 0.000000 0.000000 0.000000 0.000000 0.000000 10.000000 
spine03 0.000000 0.000000 0.000000 0.000000 0.000000 0.000000 10.000000 
pelvis 0.000000 0.000000 0.000000 0.000000 0.000000 0.000000 10.000000 
null_rope03_connect 0.000000 0.000000 0.000000 0.000000 0.000000 0.000000 10.000000 
null_rope04_connect 0.000000 0.000000 0.000000 0.000000 0.000000 0.000000 10.000000 
Rope3_Seg01 0.000000 0.000000 0.000000 0.000000 0.000000 0.000000 10.000000 
Rope3_Seg02 0.000000 0.000000 0.000000 0.000000 0.000000 0.000000 10.000000 
Rope3_Seg03 0.000000 0.000000 0.000000 0.000000 0.000000 0.000000 10.000000 
Rope3_Seg04 0.000000 0.000000 0.000000 0.000000 0.000000 0.000000 10.000000 
Rope3_Seg05 0.000000 0.000000 0.000000 0.000000 0.000000 0.000000 10.000000 
Rope3_Seg06 0.000000 0.000000 0.000000 0.000000 0.000000 0.000000 10.000000 
Rope3_Seg07 0.000000 0.000000 0.000000 0.000000 0.000000 0.000000 10.000000 
Rope3_Seg08 0.000000 0.000000 0.000000 0.000000 0.000000 0.000000 10.000000 
Rope3_Seg09 0.000000 0.000000 0.000000 0.000000 0.000000 0.000000 10.000000 
R_rear_hand01 0.000000 0.000000 0.000000 0.000000 0.000000 0.000000 10.000000 
R_rear_hand02 0.000000 0.000000 0.000000 0.000000 0.000000 0.000000 10.000000 
R_rear_hand03 0.000000 0.000000 0.000000 0.000000 0.000000 0.000000 10.000000 
Rope4_Seg01 0.000000 0.000000 0.000000 0.000000 0.000000 0.000000 10.000000 
Rope4_Seg02 0.000000 0.000000 0.000000 0.000000 0.000000 0.000000 10.000000 
Rope4_Seg03 0.000000 0.000000 0.000000 0.000000 0.000000 0.000000 10.000000 
Rope4_Seg04 0.000000 0.000000 0.000000 0.000000 0.000000 0.000000 10.000000 
Rope4_Seg05 0.000000 0.000000 0.000000 0.000000 0.000000 0.000000 10.000000 
Rope4_Seg06 0.000000 0.000000 0.000000 0.000000 0.000000 0.000000 10.000000 
Rope4_Seg07 0.000000 0.000000 0.000000 0.000000 0.000000 0.000000 10.000000 
Rope4_Seg08 0.000000 0.000000 0.000000 0.000000 0.000000 0.000000 10.000000 
Rope4_Seg09 0.000000 0.000000 0.000000 0.000000 0.000000 0.000000 10.000000 
L_rear_hand01 0.000000 0.000000 0.000000 0.000000 0.000000 0.000000 10.000000 
L_rear_hand02 0.000000 0.000000 0.000000 0.000000 0.000000 0.000000 10.000000 
L_rear_hand03 0.000000 0.000000 0.000000 0.000000 0.000000 0.000000 10.000000 
#Beginning of Data. Separated by tabs
#Fr	Tx	Ty	Tz	Rx	Ry	Rz	SF
[MASTER]
36 0.000000 0.000000 0.000000 0.001660 0.001660 0.001660 0.000000
37 0.000000 0.000000 0.000000 0.001660 0.001660 0.001660 0.000000
[root]
36 -33.620098 6.524038 1492.996338 -91.740158 13.400834 -90.225014 1493.389038
37 -29.904476 4.926339 1495.338257 -91.740158 13.400836 -90.225014 1495.645386
[chest]
36 -84.512650 -34.090519 0.000000 -2.117274 0.462005 -179.268204 91.129311
37 -84.512650 -34.090519 0.000000 -2.117274 0.462005 -179.268204 91.129311
[L_mid_tent01]
36 27.299511 22.177458 -249.918259 -7.421327 5.721246 50.467377 252.381134
37 27.299511 22.177458 -249.918259 -8.095182 5.851955 49.631382 252.381134
[R_mid_tent01]
36 23.228794 24.509907 226.238495 -174.069061 -9.490947 51.792431 228.744751
37 23.228794 24.509907 226.238495 -173.933533 -9.214280 51.057362 228.744751
[spine01]
36 -0.361383 -0.195265 0.000000 -0.000001 -0.000007 22.052340 0.410763
37 -0.361383 -0.195265 0.000000 -0.000001 -0.000007 22.052340 0.410763
[Bip01_Neck]
36 165.484543 71.581718 0.000119 175.896118 1.177290 24.871183 180.302734
37 165.484543 71.581718 0.000119 175.896118 1.177290 24.871183 180.302734
[L_humerus]
36 -13.983130 -135.272980 -120.471481 175.474304 58.687801 -118.474754 181.680161
37 -13.983130 -135.272980 -120.471481 175.474304 58.687801 -118.474754 181.680161
[R_humerus]
36 -13.983309 -135.273102 125.287651 174.588181 -51.786888 -99.934280 184.909012
37 -13.983309 -135.273102 125.287651 174.588181 -51.786880 -99.934280 184.909012
[weapon_bone]
36 235.964890 -300.705902 0.000000 0.000000 -89.951546 -128.212341 382.234833
37 235.964890 -300.705902 0.000000 0.000000 -89.951546 -128.212341 382.234833
[Bip01_Head]
36 163.817291 272.852325 22.822264 1.693472 4.424703 -42.711670 319.069519
37 163.817291 272.852325 22.822264 1.693472 4.424703 -42.711670 319.069519
[eye_left_bone]
36 -24.626970 125.451866 -64.772606 0.000000 -90.000000 -99.840431 143.318359
37 -24.626970 125.451866 -64.772606 0.000000 -90.000000 -99.840431 143.318359
[eye_right_bone]
36 -24.626970 125.451866 64.327362 0.000000 -89.965736 80.156380 143.117676
37 -24.626970 125.451866 64.327362 0.000000 -89.965736 80.156380 143.117676
[L_forearm]
36 322.776093 0.000000 -0.000119 0.000442 -0.002305 -111.718391 322.776093
37 322.776093 0.000000 -0.000119 0.000442 -0.002305 -111.718391 322.776093
[L_front_hand]
36 241.149185 -0.042021 -3.300071 -179.659958 -2.242151 -0.019832 241.171753
37 241.149185 -0.042021 -3.300071 -179.659958 -2.242151 -0.019832 241.171753
[L_weapon_bone]
36 156.183838 0.000000 0.000000 0.000014 0.000007 0.000001 156.183838
37 156.183838 0.000000 0.000000 0.000014 0.000007 0.000001 156.183838
[L_front_hand01_01]
36 86.095154 20.947098 -0.655860 -0.366594 -0.477154 75.385574 88.609184
37 86.095154 20.947098 -0.655860 -0.366594 -0.477154 75.385574 88.609184
[L_front_hand02_01]
36 86.935165 -11.437475 24.513514 154.399796 -59.883835 -61.369587 91.046425
37 86.935165 -11.437475 24.513514 154.399796 -59.883835 -61.369587 91.046425
[L_front_hand03_01]
36 86.637497 -14.123976 -20.424902 -153.913849 58.118122 -62.702866 90.126129
37 86.637497 -14.123976 -20.424902 -153.913849 58.118122 -62.702866 90.126129
[L_front_hand01_02]
36 71.020905 -0.000179 0.000030 0.000334 -0.002323 -106.379684 71.020905
37 71.020905 -0.000179 0.000030 0.000334 -0.002323 -106.379684 71.020905
[L_front_hand02_02]
36 71.020927 -0.000119 0.000060 0.000334 -0.002323 -106.379684 71.020927
37 71.020927 -0.000119 0.000060 0.000334 -0.002323 -106.379684 71.020927
[L_front_hand03_02]
36 71.020905 -0.000060 0.000060 0.000334 -0.002323 -106.379684 71.020905
37 71.020905 -0.000060 0.000060 0.000334 -0.002323 -106.379684 71.020905
[R_forearm]
36 322.776428 -0.000060 0.000030 0.211305 0.032976 -99.623016 322.776428
37 322.776428 -0.000060 0.000030 0.211305 0.032976 -99.623016 322.776428
[R_front_hand]
36 238.847015 -0.006795 2.210259 -0.270529 1.703932 2.322530 238.857239
37 238.847015 -0.006795 2.210259 -0.270529 1.703932 2.322530 238.857239
[R_weapon_bone]
36 155.664093 0.002503 -0.000030 0.003487 0.001180 -90.988930 155.664078
37 155.664093 0.002503 -0.000030 0.003487 0.001180 -90.988930 155.664078
[R_front_hand01_01]
36 87.624611 14.231146 22.918642 -154.633499 -59.950619 61.746044 91.683487
37 87.624611 14.231146 22.918642 -154.633499 -59.950619 61.746044 91.683487
[R_front_hand02_01]
36 89.356956 14.367283 -19.491137 154.602661 58.302849 63.744389 92.579636
37 89.356956 14.367283 -19.491137 154.602661 58.302849 63.744389 92.579636
[R_front_hand03_01]
36 87.286232 -22.307278 -0.143439 0.162155 -0.423168 -75.767921 90.091743
37 87.286232 -22.307278 -0.143439 0.162155 -0.423168 -75.767921 90.091743
[R_front_hand01_02]
36 71.020905 0.000060 0.000119 0.002323 -0.000334 106.381714 71.020905
37 71.020905 0.000060 0.000119 0.002323 -0.000334 106.381714 71.020905
[R_front_hand02_02]
36 71.020844 -0.000030 -0.000119 0.002323 -0.000334 106.381714 71.020836
37 71.020844 -0.000030 -0.000119 0.002323 -0.000334 106.381714 71.020836
[R_front_hand03_02]
36 71.020905 0.000000 0.000030 0.002323 -0.000334 106.381714 71.020905
37 71.020905 0.000000 0.000030 0.002323 -0.000334 106.381714 71.020905
[null_rope01_connect]
36 328.732483 0.000000 -0.000238 156.627090 -79.029976 -130.918930 328.732483
37 328.732483 0.000000 -0.000238 155.615967 -78.421516 -129.125549 328.732483
[Rope1_Seg01]
36 0.000000 0.000000 0.000000 -151.654739 54.962967 -131.386826 0.000000
37 0.000000 0.000000 0.000000 -146.768311 56.499886 -128.914124 0.000000
[Rope1_Seg02]
36 139.999863 -0.000179 0.000000 25.412733 -5.243145 -13.491241 139.999863
37 139.999863 -0.000179 0.000000 24.751738 -5.782511 -13.478272 139.999863
[Rope1_Seg03]
36 139.999924 0.000060 -0.000060 19.510302 -8.288900 -6.831101 139.999924
37 139.999924 0.000060 -0.000060 18.331638 -8.605671 -6.550234 139.999924
[Rope1_Seg04]
36 139.999924 -0.000060 -0.000119 10.390015 -8.582427 -1.103785 139.999924
37 139.999924 -0.000060 -0.000119 9.812337 -8.777446 -0.997185 139.999924
[Rope1_Seg05]
36 139.999832 0.000119 -0.000060 5.103204 -2.660886 -2.484123 139.999832
37 139.999832 0.000119 -0.000060 4.283186 -2.005590 -2.588094 139.999832
[Rope1_Seg06]
36 139.999954 0.000119 -0.000060 7.030175 0.600706 -7.076525 139.999954
37 139.999954 0.000119 -0.000060 5.259914 2.437066 -7.637226 139.999954
[Rope1_Seg07]
36 139.999985 0.000060 0.000000 17.899015 0.804148 -12.020752 139.999985
37 139.999985 0.000060 0.000000 16.774967 4.029009 -13.329287 139.999985
[Rope1_Seg09]
36 121.602913 0.000119 -0.000089 -89.793175 -1.359789 0.847147 121.602913
37 121.602913 0.000119 -0.000089 -89.793175 -1.359789 0.847147 121.602913
[L_mid_hand01]
36 103.859421 1.038730 8.195221 106.855484 -31.239275 -9.461397 104.187431
37 103.859421 1.038730 8.195221 106.855484 -31.239275 -9.461397 104.187431
[L_mid_hand02]
36 105.572853 -4.139662 -10.864139 -142.331345 25.752670 -28.774628 106.211075
37 105.572853 -4.139662 -10.864139 -142.331345 25.752670 -28.774628 106.211075
[L_mid_hand03]
36 104.641464 17.579376 -3.913581 -16.122810 9.734291 34.223598 106.179977
37 104.641464 17.579376 -3.913581 -16.122810 9.734291 34.223598 106.179977
[null_rope02_connect]
36 328.732849 0.000179 -0.000119 172.347443 80.525909 -31.964279 328.732849
37 328.732849 0.000179 -0.000119 171.609695 80.683800 -33.443375 328.732849
[Rope2_Seg01]
36 0.000000 0.000000 0.000000 126.884087 55.967178 -104.570984 0.000000
37 0.000000 0.000000 0.000000 124.278938 55.450344 -107.155434 0.000000
[Rope2_Seg02]
36 139.999741 -0.000060 -0.000119 1.694971 11.641452 -8.609447 139.999756
37 139.999741 -0.000060 -0.000119 1.689978 11.181164 -8.548482 139.999756
[Rope2_Seg03]
36 140.000107 0.000030 0.000000 10.139212 10.641343 -12.912727 140.000107
37 140.000107 0.000030 0.000000 8.620394 9.675473 -12.065830 140.000107
[Rope2_Seg04]
36 139.999802 0.000000 -0.000060 3.588972 7.625257 -5.221095 139.999802
37 139.999802 0.000000 -0.000060 2.464667 8.145784 -5.141144 139.999802
[Rope2_Seg05]
36 139.999985 -0.000060 0.000119 -29.279051 7.315706 8.941369 139.999985
37 139.999985 -0.000060 0.000119 -21.678902 7.410323 5.861753 139.999985
[Rope2_Seg06]
36 139.999893 -0.000030 -0.000119 -14.254491 1.664188 5.787968 139.999893
37 139.999893 -0.000030 -0.000119 -11.785533 2.907644 3.477146 139.999893
[Rope2_Seg07]
36 139.999893 0.000060 -0.000060 -7.484448 0.516517 3.398171 139.999893
37 139.999893 0.000060 -0.000060 -7.320127 1.526865 2.223684 139.999893
[Rope2_Seg09]
36 121.338966 0.000089 -0.000060 33.793236 -1.359788 -0.847141 121.338966
37 121.338966 0.000089 -0.000060 33.793236 -1.359788 -0.847141 121.338966
[R_mid_hand01]
36 104.680779 11.144459 -10.335981 -41.523792 25.424656 28.595957 105.778534
37 104.680779 11.144459 -10.335981 -41.523792 25.424656 28.595957 105.778534
[R_mid_hand02]
36 104.070427 2.443552 8.231699 72.847389 -32.746803 10.013901 104.424065
37 104.070427 2.443552 8.231699 72.847389 -32.746803 10.013901 104.424065
[R_mid_hand03]
36 106.028137 -11.221827 -5.996406 -167.901306 10.259192 -37.009720 106.788818
37 106.028137 -11.221827 -5.996406 -167.901306 10.259192 -37.009720 106.788818
[spine02]
36 129.756927 0.001550 0.000119 0.360061 -4.044797 -12.915058 129.756927
37 129.756927 0.001550 0.000119 0.360061 -4.044797 -12.915058 129.756927
[spine03]
36 78.613846 0.087372 -4.898873 1.896495 3.831288 16.473045 78.766380
37 78.613846 0.087372 -4.898873 1.896495 3.831288 16.473045 78.766380
[pelvis]
36 169.435242 0.051022 0.000000 -0.060465 -0.180225 14.087930 169.435257
37 169.435242 0.051022 0.000000 -0.060465 -0.180225 14.087930 169.435257
[null_rope03_connect]
36 -1.257226 -2.466202 137.391083 -159.503860 -89.311867 -163.586563 137.418976
37 -1.257226 -2.466202 137.391083 -159.503860 -89.311867 -163.586563 137.418976
[null_rope04_connect]
36 -1.259640 -2.480268 -137.844437 -159.503860 -89.311867 -163.586563 137.872513
37 -1.259640 -2.480268 -137.844437 -159.503860 -89.311867 -163.586563 137.872513
[Rope3_Seg01]
36 0.000000 0.000000 0.000000 -132.917526 10.438331 -92.508675 0.000000
37 0.000000 0.000000 0.000000 -132.626129 10.608497 -89.609047 0.000000
[Rope3_Seg02]
36 139.999924 -0.000119 0.000060 -2.299977 -3.169429 6.690165 139.999924
37 139.999924 -0.000119 0.000060 -1.768697 -1.735544 7.558002 139.999924
[Rope3_Seg03]
36 139.999924 -0.000119 0.000119 -3.390679 -2.755271 8.966162 139.999924
37 139.999924 -0.000119 0.000119 -2.819668 -0.851398 10.113328 139.999924
[Rope3_Seg04]
36 139.999924 0.000119 0.000000 -5.688183 -1.688781 12.968900 139.999924
37 139.999924 0.000119 0.000000 -4.969217 0.878165 14.262974 139.999924
[Rope3_Seg05]
36 139.999924 -0.000238 0.000060 -0.816293 -10.849156 -10.004075 139.999924
37 139.999924 -0.000238 0.000060 -1.716445 -11.955641 -9.543066 139.999924
[Rope3_Seg06]
36 139.999893 -0.000119 -0.000060 1.720112 -9.526667 -15.069015 139.999893
37 139.999893 -0.000119 -0.000060 1.653991 -11.404023 -15.499359 139.999893
[Rope3_Seg07]
36 139.999771 0.000060 -0.000119 0.749211 -4.939180 -5.720985 139.999771
37 139.999771 0.000060 -0.000119 0.732299 -5.510174 -5.700411 139.999771
[Rope3_Seg08]
36 139.999985 -0.000060 0.000000 0.674724 -2.913249 -3.305948 139.999985
37 139.999985 -0.000060 0.000000 0.687099 -3.215061 -3.258811 139.999985
[Rope3_Seg09]
36 90.185997 -0.000179 -0.000060 89.793228 -1.359877 -0.847183 90.185997
37 90.185997 -0.000179 -0.000060 89.793228 -1.359877 -0.847183 90.185997
[R_rear_hand01]
36 103.366196 -6.073594 -10.757982 -161.551193 16.666374 -30.088671 104.101845
37 103.366196 -6.073594 -10.757982 -161.551193 16.666374 -30.088671 104.101845
[R_rear_hand02]
36 100.509819 12.039542 -7.992327 -34.280552 19.289745 28.875523 101.543350
37 100.509819 12.039542 -7.992327 -34.280552 19.289745 28.875523 101.543350
[R_rear_hand03]
36 101.539970 5.215704 5.435467 83.366440 -30.933914 7.284830 101.819031
37 101.539970 5.215704 5.435467 83.366440 -30.933914 7.284830 101.819031
[Rope4_Seg01]
36 0.000010 0.000038 -0.000114 46.501648 35.670944 -107.755188 0.000121
37 0.000010 0.000038 -0.000114 48.593307 36.117657 -104.119728 0.000121
[Rope4_Seg02]
36 139.999985 0.000060 0.000119 -0.233859 -1.487189 2.517536 139.999985
37 139.999985 0.000060 0.000119 -0.310232 -2.531643 1.576752 139.999985
[Rope4_Seg03]
36 139.999924 0.000000 -0.000238 -0.302735 -2.063114 3.163402 139.999924
37 139.999924 0.000000 -0.000238 -0.289905 -3.362602 1.840970 139.999924
[Rope4_Seg04]
36 139.999985 0.000000 0.000119 -0.085573 -7.852818 0.909828 139.999985
37 139.999985 0.000000 0.000119 0.256194 -9.799815 -1.926443 139.999985
[Rope4_Seg05]
36 139.999802 -0.000060 -0.000119 0.208684 5.618425 12.594567 139.999802
37 139.999802 -0.000060 -0.000119 0.597313 3.731118 10.928997 139.999802
[Rope4_Seg06]
36 139.999924 0.000000 0.000060 -0.558397 13.258132 14.971713 139.999924
37 139.999924 0.000000 0.000060 0.156592 14.325010 17.429590 139.999924
[Rope4_Seg07]
36 139.999802 0.000000 0.000000 -2.149209 4.870430 7.148499 139.999802
37 139.999802 0.000000 0.000000 -2.166847 5.386679 8.236380 139.999802
[Rope4_Seg08]
36 139.999924 0.000000 0.000119 -3.283896 2.540302 4.096745 139.999924
37 139.999924 0.000000 0.000119 -3.410421 2.771469 4.701561 139.999924
[Rope4_Seg09]
36 90.185791 0.000060 0.000060 -135.617828 2.228885 0.850567 90.185791
37 90.185791 0.000060 0.000060 -135.617828 2.228885 0.850567 90.185791
[L_rear_hand01]
36 101.696655 -8.392275 -7.654577 -34.454281 -18.946800 151.655121 102.329041
37 101.696655 -8.392275 -7.654577 -34.454281 -18.946800 151.655121 102.329041
[L_rear_hand02]
36 102.726799 -1.568258 5.773216 83.407906 30.330435 172.796509 102.900848
37 102.726799 -1.568258 5.773216 83.407906 30.330435 172.796509 102.900848
[L_rear_hand03]
36 104.552910 9.721220 -10.420293 -161.379868 -16.473232 -150.512238 105.519653
37 104.552910 9.721220 -10.420293 -161.379868 -16.473232 -150.512238 105.519653
